<svg xmlns="http://www.w3.org/2000/svg" width="80" height="80" viewBox="0 0 80 80">
  <g id="Group_14" data-name="Group 14" transform="translate(-880)">
    <circle id="Oval" cx="40" cy="40" r="40" transform="translate(880)" fill="#004885"/>
    <g id="np_fast_3918133_FFFFFF" transform="translate(891.317 15.737)">
      <path id="Path_54" data-name="Path 54" d="M63.582,45.171a2.235,2.235,0,0,0-2.5,1.859,16.063,16.063,0,0,1-18.151,13.7L40.1,64.642a19.424,19.424,0,0,0,4.99.636,20.56,20.56,0,0,0,20.35-17.662,2.129,2.129,0,0,0-1.856-2.446Z" transform="translate(-16.66 -21.782)" fill="#fff"/>
      <path id="Path_55" data-name="Path 55" d="M47.447,4.945a2.192,2.192,0,0,0-2.2,2.2v3.13L43.484,8.515A20.484,20.484,0,0,0,9.141,28.086L12.908,22.9a16.317,16.317,0,0,1,4.7-11.3,16.091,16.091,0,0,1,22.8,0l1.762,1.762h-3.13a2.2,2.2,0,1,0,0,4.4h8.414a2.192,2.192,0,0,0,2.2-2.2V7.146a2.192,2.192,0,0,0-2.2-2.2Z" transform="translate(-0.525)" fill="#fff"/>
      <path id="Path_56" data-name="Path 56" d="M47.9,21.1a2.192,2.192,0,0,0-2.2,2.2v9.2a2.147,2.147,0,0,0,1.615,2.1l6.752,1.907a2.415,2.415,0,0,0,.587.1,2.194,2.194,0,0,0,.587-4.306L50.1,30.837V23.3a2.192,2.192,0,0,0-2.2-2.2Z" transform="translate(-19.521 -9.502)" fill="#fff"/>
      <path id="Path_57" data-name="Path 57" d="M23.34,51.959H19.574L20.7,43.692a1.358,1.358,0,0,0-2.446-.978L7.735,57.243a1.363,1.363,0,0,0,1.076,2.152h3.767l-1.126,8.267a1.358,1.358,0,0,0,2.446.978L24.416,54.061a1.3,1.3,0,0,0-1.076-2.1Z" transform="translate(0 -20.254)" fill="#fff"/>
    </g>
  </g>
</svg>
