<svg xmlns="http://www.w3.org/2000/svg" width="80" height="80" viewBox="0 0 80 80">
  <g id="Group_15" data-name="Group 15" transform="translate(-880 -285)">
    <circle id="Oval" cx="40" cy="40" r="40" transform="translate(880 285)" fill="#004885"/>
    <g id="np_safety_2952064_FFFFFF" transform="translate(886.063 294.097)">
      <path id="Path_58" data-name="Path 58" d="M40.016,50.713l-6.9-6.774a1.366,1.366,0,0,1-.017-1.931l1.432-1.458a1.366,1.366,0,0,1,1.929-.019l4.5,4.415,9.684-9.688a1.364,1.364,0,0,1,1.929,0l1.447,1.449a1.364,1.364,0,0,1,0,1.929L41.952,50.7a1.373,1.373,0,0,1-1.936.011Z" transform="translate(-8.688 -12.997)" fill="#fff"/>
      <path id="Path_59" data-name="Path 59" d="M33.455,54a1.858,1.858,0,0,1-1.062-.33c-17.426-12.062-18.812-23.8-18.812-37.9A1.862,1.862,0,0,1,15.1,13.938,49.671,49.671,0,0,0,32.369,6.6a1.863,1.863,0,0,1,2.17,0,49.662,49.662,0,0,0,17.274,7.341,1.86,1.86,0,0,1,1.513,1.829c0,14.1-1.386,25.837-18.814,37.9a1.847,1.847,0,0,1-1.059.33ZM17.312,17.278c.1,12.76,1.7,22.2,16.143,32.579C47.9,39.477,49.5,30.038,49.6,17.278a53.447,53.447,0,0,1-16.143-6.924,53.567,53.567,0,0,1-16.143,6.924Z" fill="#fff"/>
    </g>
  </g>
</svg>
